<mxfile host="app.diagrams.net" modified="2022-01-19T15:06:37.809Z" agent="5.0 (Macintosh; Intel Mac OS X 10_15_7) AppleWebKit/537.36 (KHTML, like Gecko) Chrome/94.0.4606.61 Safari/537.36" etag="rgcjObj-VRUQvreXJIYI" version="16.4.0" type="github">
  <diagram id="UhGdTRR8SlhTP3d6VNUI" name="Page-1">
    <mxGraphModel dx="1584" dy="882" grid="1" gridSize="10" guides="1" tooltips="1" connect="1" arrows="1" fold="1" page="1" pageScale="1" pageWidth="1654" pageHeight="1654" math="0" shadow="0">
      <root>
        <mxCell id="0" />
        <mxCell id="1" parent="0" />
        <mxCell id="RT_vrtGyYzo0KyHQsd38-3" value="CommonSettings" style="swimlane;fontStyle=1;align=center;verticalAlign=top;childLayout=stackLayout;horizontal=1;startSize=26;horizontalStack=0;resizeParent=1;resizeParentMax=0;resizeLast=0;collapsible=1;marginBottom=0;" parent="1" vertex="1">
          <mxGeometry x="360" y="100" width="200" height="200" as="geometry" />
        </mxCell>
        <mxCell id="RT_vrtGyYzo0KyHQsd38-4" value="color&#xa;margin &#xa;paddings" style="text;strokeColor=none;fillColor=none;align=left;verticalAlign=top;spacingLeft=4;spacingRight=4;overflow=hidden;rotatable=0;points=[[0,0.5],[1,0.5]];portConstraint=eastwest;fontStyle=0" parent="RT_vrtGyYzo0KyHQsd38-3" vertex="1">
          <mxGeometry y="26" width="200" height="54" as="geometry" />
        </mxCell>
        <mxCell id="RT_vrtGyYzo0KyHQsd38-5" value="" style="line;strokeWidth=1;fillColor=none;align=left;verticalAlign=middle;spacingTop=-1;spacingLeft=3;spacingRight=3;rotatable=0;labelPosition=right;points=[];portConstraint=eastwest;" parent="RT_vrtGyYzo0KyHQsd38-3" vertex="1">
          <mxGeometry y="80" width="200" height="8" as="geometry" />
        </mxCell>
        <mxCell id="RT_vrtGyYzo0KyHQsd38-6" value="getColor()&#xa;getMargin()&#xa;getPaddings()&#xa;setColor()&#xa;setMargin()&#xa;setPaddings()" style="text;strokeColor=none;fillColor=none;align=left;verticalAlign=top;spacingLeft=4;spacingRight=4;overflow=hidden;rotatable=0;points=[[0,0.5],[1,0.5]];portConstraint=eastwest;" parent="RT_vrtGyYzo0KyHQsd38-3" vertex="1">
          <mxGeometry y="88" width="200" height="112" as="geometry" />
        </mxCell>
        <mxCell id="RT_vrtGyYzo0KyHQsd38-8" value="FontSettings" style="swimlane;fontStyle=1;align=center;verticalAlign=top;childLayout=stackLayout;horizontal=1;startSize=26;horizontalStack=0;resizeParent=1;resizeParentMax=0;resizeLast=0;collapsible=1;marginBottom=0;" parent="1" vertex="1">
          <mxGeometry x="360" y="320" width="200" height="240" as="geometry" />
        </mxCell>
        <mxCell id="RT_vrtGyYzo0KyHQsd38-9" value="fontSize&#xa;lineHeight&#xa;letterSpacing&#xa;fontWeight&#xa;" style="text;strokeColor=none;fillColor=none;align=left;verticalAlign=top;spacingLeft=4;spacingRight=4;overflow=hidden;rotatable=0;points=[[0,0.5],[1,0.5]];portConstraint=eastwest;fontStyle=0" parent="RT_vrtGyYzo0KyHQsd38-8" vertex="1">
          <mxGeometry y="26" width="200" height="74" as="geometry" />
        </mxCell>
        <mxCell id="RT_vrtGyYzo0KyHQsd38-10" value="" style="line;strokeWidth=1;fillColor=none;align=left;verticalAlign=middle;spacingTop=-1;spacingLeft=3;spacingRight=3;rotatable=0;labelPosition=right;points=[];portConstraint=eastwest;" parent="RT_vrtGyYzo0KyHQsd38-8" vertex="1">
          <mxGeometry y="100" width="200" height="8" as="geometry" />
        </mxCell>
        <mxCell id="RT_vrtGyYzo0KyHQsd38-11" value="getFontSize()&#xa;getLineHeight()&#xa;getLetterSpacing()&#xa;getFontWeight()&#xa;setFontSize()&#xa;setLineHeight()&#xa;setLetterSpacing()&#xa;setFontWeight()" style="text;strokeColor=none;fillColor=none;align=left;verticalAlign=top;spacingLeft=4;spacingRight=4;overflow=hidden;rotatable=0;points=[[0,0.5],[1,0.5]];portConstraint=eastwest;" parent="RT_vrtGyYzo0KyHQsd38-8" vertex="1">
          <mxGeometry y="108" width="200" height="132" as="geometry" />
        </mxCell>
        <mxCell id="RT_vrtGyYzo0KyHQsd38-13" value="BorderSettings" style="swimlane;fontStyle=1;align=center;verticalAlign=top;childLayout=stackLayout;horizontal=1;startSize=26;horizontalStack=0;resizeParent=1;resizeParentMax=0;resizeLast=0;collapsible=1;marginBottom=0;" parent="1" vertex="1">
          <mxGeometry x="360" y="1000" width="200" height="150" as="geometry" />
        </mxCell>
        <mxCell id="RT_vrtGyYzo0KyHQsd38-14" value="border&#xa;borderRadius" style="text;strokeColor=none;fillColor=none;align=left;verticalAlign=top;spacingLeft=4;spacingRight=4;overflow=hidden;rotatable=0;points=[[0,0.5],[1,0.5]];portConstraint=eastwest;fontStyle=0" parent="RT_vrtGyYzo0KyHQsd38-13" vertex="1">
          <mxGeometry y="26" width="200" height="44" as="geometry" />
        </mxCell>
        <mxCell id="RT_vrtGyYzo0KyHQsd38-15" value="" style="line;strokeWidth=1;fillColor=none;align=left;verticalAlign=middle;spacingTop=-1;spacingLeft=3;spacingRight=3;rotatable=0;labelPosition=right;points=[];portConstraint=eastwest;" parent="RT_vrtGyYzo0KyHQsd38-13" vertex="1">
          <mxGeometry y="70" width="200" height="8" as="geometry" />
        </mxCell>
        <mxCell id="RT_vrtGyYzo0KyHQsd38-16" value="getBorder()&#xa;getBorderRadius()&#xa;setBorder()&#xa;setBorderRadius()&#xa;" style="text;strokeColor=none;fillColor=none;align=left;verticalAlign=top;spacingLeft=4;spacingRight=4;overflow=hidden;rotatable=0;points=[[0,0.5],[1,0.5]];portConstraint=eastwest;fontStyle=0" parent="RT_vrtGyYzo0KyHQsd38-13" vertex="1">
          <mxGeometry y="78" width="200" height="72" as="geometry" />
        </mxCell>
        <mxCell id="RT_vrtGyYzo0KyHQsd38-17" value="Glif settings classes" style="text;html=1;strokeColor=none;fillColor=none;align=center;verticalAlign=middle;whiteSpace=wrap;rounded=0;strokeWidth=3;fontSize=24;" parent="1" vertex="1">
          <mxGeometry x="40" y="40" width="750" height="30" as="geometry" />
        </mxCell>
        <mxCell id="RT_vrtGyYzo0KyHQsd38-18" value="ButtonSettings" style="swimlane;fontStyle=1;align=center;verticalAlign=top;childLayout=stackLayout;horizontal=1;startSize=26;horizontalStack=0;resizeParent=1;resizeParentMax=0;resizeLast=0;collapsible=1;marginBottom=0;" parent="1" vertex="1">
          <mxGeometry x="640" y="200" width="240" height="150" as="geometry" />
        </mxCell>
        <mxCell id="RT_vrtGyYzo0KyHQsd38-19" value="icon&#xa;link" style="text;strokeColor=none;fillColor=none;align=left;verticalAlign=top;spacingLeft=4;spacingRight=4;overflow=hidden;rotatable=0;points=[[0,0.5],[1,0.5]];portConstraint=eastwest;fontStyle=0" parent="RT_vrtGyYzo0KyHQsd38-18" vertex="1">
          <mxGeometry y="26" width="240" height="44" as="geometry" />
        </mxCell>
        <mxCell id="RT_vrtGyYzo0KyHQsd38-20" value="" style="line;strokeWidth=1;fillColor=none;align=left;verticalAlign=middle;spacingTop=-1;spacingLeft=3;spacingRight=3;rotatable=0;labelPosition=right;points=[];portConstraint=eastwest;" parent="RT_vrtGyYzo0KyHQsd38-18" vertex="1">
          <mxGeometry y="70" width="240" height="8" as="geometry" />
        </mxCell>
        <mxCell id="RT_vrtGyYzo0KyHQsd38-21" value="getIcon()&#xa;getLink()&#xa;setIcon()&#xa;setLink()" style="text;strokeColor=none;fillColor=none;align=left;verticalAlign=top;spacingLeft=4;spacingRight=4;overflow=hidden;rotatable=0;points=[[0,0.5],[1,0.5]];portConstraint=eastwest;fontStyle=0" parent="RT_vrtGyYzo0KyHQsd38-18" vertex="1">
          <mxGeometry y="78" width="240" height="72" as="geometry" />
        </mxCell>
        <mxCell id="IYxpVepuhbEYIuZDDsvg-1" value="SizeSettings" style="swimlane;fontStyle=1;align=center;verticalAlign=top;childLayout=stackLayout;horizontal=1;startSize=26;horizontalStack=0;resizeParent=1;resizeParentMax=0;resizeLast=0;collapsible=1;marginBottom=0;" vertex="1" parent="1">
          <mxGeometry x="360" y="760" width="200" height="200" as="geometry" />
        </mxCell>
        <mxCell id="IYxpVepuhbEYIuZDDsvg-2" value="height?&#xa;minHeight?&#xa;maxHeight?&#xa;width&#xa;maxWidth()&#xa;minWidth()" style="text;strokeColor=none;fillColor=none;align=left;verticalAlign=top;spacingLeft=4;spacingRight=4;overflow=hidden;rotatable=0;points=[[0,0.5],[1,0.5]];portConstraint=eastwest;fontStyle=0" vertex="1" parent="IYxpVepuhbEYIuZDDsvg-1">
          <mxGeometry y="26" width="200" height="94" as="geometry" />
        </mxCell>
        <mxCell id="IYxpVepuhbEYIuZDDsvg-3" value="" style="line;strokeWidth=1;fillColor=none;align=left;verticalAlign=middle;spacingTop=-1;spacingLeft=3;spacingRight=3;rotatable=0;labelPosition=right;points=[];portConstraint=eastwest;" vertex="1" parent="IYxpVepuhbEYIuZDDsvg-1">
          <mxGeometry y="120" width="200" height="8" as="geometry" />
        </mxCell>
        <mxCell id="IYxpVepuhbEYIuZDDsvg-4" value="getHeight()?&#xa;getMinHeight()?&#xa;getMaxHeight()?&#xa;getWidth()&#xa;" style="text;strokeColor=none;fillColor=none;align=left;verticalAlign=top;spacingLeft=4;spacingRight=4;overflow=hidden;rotatable=0;points=[[0,0.5],[1,0.5]];portConstraint=eastwest;" vertex="1" parent="IYxpVepuhbEYIuZDDsvg-1">
          <mxGeometry y="128" width="200" height="72" as="geometry" />
        </mxCell>
        <mxCell id="IYxpVepuhbEYIuZDDsvg-7" value="BackgroundSettings" style="swimlane;fontStyle=1;align=center;verticalAlign=top;childLayout=stackLayout;horizontal=1;startSize=26;horizontalStack=0;resizeParent=1;resizeParentMax=0;resizeLast=0;collapsible=1;marginBottom=0;" vertex="1" parent="1">
          <mxGeometry x="360" y="585" width="200" height="150" as="geometry" />
        </mxCell>
        <mxCell id="IYxpVepuhbEYIuZDDsvg-8" value="background&#xa;backgroundColor" style="text;strokeColor=none;fillColor=none;align=left;verticalAlign=top;spacingLeft=4;spacingRight=4;overflow=hidden;rotatable=0;points=[[0,0.5],[1,0.5]];portConstraint=eastwest;fontStyle=0" vertex="1" parent="IYxpVepuhbEYIuZDDsvg-7">
          <mxGeometry y="26" width="200" height="44" as="geometry" />
        </mxCell>
        <mxCell id="IYxpVepuhbEYIuZDDsvg-9" value="" style="line;strokeWidth=1;fillColor=none;align=left;verticalAlign=middle;spacingTop=-1;spacingLeft=3;spacingRight=3;rotatable=0;labelPosition=right;points=[];portConstraint=eastwest;" vertex="1" parent="IYxpVepuhbEYIuZDDsvg-7">
          <mxGeometry y="70" width="200" height="8" as="geometry" />
        </mxCell>
        <mxCell id="IYxpVepuhbEYIuZDDsvg-10" value="getBackground()&#xa;getBackgroundColor()&#xa;setBackround()&#xa;setBackgroundColor()" style="text;strokeColor=none;fillColor=none;align=left;verticalAlign=top;spacingLeft=4;spacingRight=4;overflow=hidden;rotatable=0;points=[[0,0.5],[1,0.5]];portConstraint=eastwest;fontStyle=0" vertex="1" parent="IYxpVepuhbEYIuZDDsvg-7">
          <mxGeometry y="78" width="200" height="72" as="geometry" />
        </mxCell>
        <mxCell id="IYxpVepuhbEYIuZDDsvg-13" value="HeadingSettings" style="swimlane;fontStyle=1;align=center;verticalAlign=top;childLayout=stackLayout;horizontal=1;startSize=26;horizontalStack=0;resizeParent=1;resizeParentMax=0;resizeLast=0;collapsible=1;marginBottom=0;" vertex="1" parent="1">
          <mxGeometry x="40" y="200" width="240" height="100" as="geometry" />
        </mxCell>
        <mxCell id="IYxpVepuhbEYIuZDDsvg-14" value="text" style="text;strokeColor=none;fillColor=none;align=left;verticalAlign=top;spacingLeft=4;spacingRight=4;overflow=hidden;rotatable=0;points=[[0,0.5],[1,0.5]];portConstraint=eastwest;fontStyle=0" vertex="1" parent="IYxpVepuhbEYIuZDDsvg-13">
          <mxGeometry y="26" width="240" height="24" as="geometry" />
        </mxCell>
        <mxCell id="IYxpVepuhbEYIuZDDsvg-15" value="" style="line;strokeWidth=1;fillColor=none;align=left;verticalAlign=middle;spacingTop=-1;spacingLeft=3;spacingRight=3;rotatable=0;labelPosition=right;points=[];portConstraint=eastwest;" vertex="1" parent="IYxpVepuhbEYIuZDDsvg-13">
          <mxGeometry y="50" width="240" height="8" as="geometry" />
        </mxCell>
        <mxCell id="IYxpVepuhbEYIuZDDsvg-16" value="getText()&#xa;setText()" style="text;strokeColor=none;fillColor=none;align=left;verticalAlign=top;spacingLeft=4;spacingRight=4;overflow=hidden;rotatable=0;points=[[0,0.5],[1,0.5]];portConstraint=eastwest;fontStyle=0" vertex="1" parent="IYxpVepuhbEYIuZDDsvg-13">
          <mxGeometry y="58" width="240" height="42" as="geometry" />
        </mxCell>
        <mxCell id="IYxpVepuhbEYIuZDDsvg-23" style="edgeStyle=orthogonalEdgeStyle;rounded=0;orthogonalLoop=1;jettySize=auto;html=1;entryX=0.5;entryY=0;entryDx=0;entryDy=0;" edge="1" parent="1" source="RT_vrtGyYzo0KyHQsd38-4" target="RT_vrtGyYzo0KyHQsd38-18">
          <mxGeometry relative="1" as="geometry" />
        </mxCell>
        <mxCell id="IYxpVepuhbEYIuZDDsvg-28" style="edgeStyle=orthogonalEdgeStyle;rounded=0;orthogonalLoop=1;jettySize=auto;html=1;exitX=1;exitY=0.5;exitDx=0;exitDy=0;" edge="1" parent="1" source="RT_vrtGyYzo0KyHQsd38-9" target="RT_vrtGyYzo0KyHQsd38-21">
          <mxGeometry relative="1" as="geometry" />
        </mxCell>
        <mxCell id="IYxpVepuhbEYIuZDDsvg-29" style="edgeStyle=orthogonalEdgeStyle;rounded=0;orthogonalLoop=1;jettySize=auto;html=1;exitX=1;exitY=0.5;exitDx=0;exitDy=0;entryX=0;entryY=0.5;entryDx=0;entryDy=0;" edge="1" parent="1" source="IYxpVepuhbEYIuZDDsvg-8" target="RT_vrtGyYzo0KyHQsd38-21">
          <mxGeometry relative="1" as="geometry" />
        </mxCell>
        <mxCell id="IYxpVepuhbEYIuZDDsvg-30" style="edgeStyle=orthogonalEdgeStyle;rounded=0;orthogonalLoop=1;jettySize=auto;html=1;entryX=0;entryY=0.5;entryDx=0;entryDy=0;" edge="1" parent="1" source="IYxpVepuhbEYIuZDDsvg-2" target="RT_vrtGyYzo0KyHQsd38-21">
          <mxGeometry relative="1" as="geometry" />
        </mxCell>
        <mxCell id="IYxpVepuhbEYIuZDDsvg-31" style="edgeStyle=orthogonalEdgeStyle;rounded=0;orthogonalLoop=1;jettySize=auto;html=1;exitX=1;exitY=0.5;exitDx=0;exitDy=0;entryX=0;entryY=0.5;entryDx=0;entryDy=0;" edge="1" parent="1" source="RT_vrtGyYzo0KyHQsd38-14" target="RT_vrtGyYzo0KyHQsd38-21">
          <mxGeometry relative="1" as="geometry">
            <mxPoint x="600" y="580" as="targetPoint" />
          </mxGeometry>
        </mxCell>
        <mxCell id="IYxpVepuhbEYIuZDDsvg-34" style="edgeStyle=orthogonalEdgeStyle;rounded=0;orthogonalLoop=1;jettySize=auto;html=1;exitX=0;exitY=0.5;exitDx=0;exitDy=0;entryX=0.5;entryY=0;entryDx=0;entryDy=0;endArrow=classic;endFill=1;" edge="1" parent="1" source="RT_vrtGyYzo0KyHQsd38-4" target="IYxpVepuhbEYIuZDDsvg-13">
          <mxGeometry relative="1" as="geometry" />
        </mxCell>
        <mxCell id="IYxpVepuhbEYIuZDDsvg-36" style="edgeStyle=orthogonalEdgeStyle;rounded=0;orthogonalLoop=1;jettySize=auto;html=1;exitX=0;exitY=0.5;exitDx=0;exitDy=0;entryX=1;entryY=0.5;entryDx=0;entryDy=0;endArrow=classic;endFill=1;" edge="1" parent="1" source="RT_vrtGyYzo0KyHQsd38-9" target="IYxpVepuhbEYIuZDDsvg-16">
          <mxGeometry relative="1" as="geometry" />
        </mxCell>
        <mxCell id="IYxpVepuhbEYIuZDDsvg-38" style="edgeStyle=orthogonalEdgeStyle;rounded=0;orthogonalLoop=1;jettySize=auto;html=1;exitX=0;exitY=0.5;exitDx=0;exitDy=0;endArrow=classic;endFill=1;entryX=1;entryY=0.5;entryDx=0;entryDy=0;" edge="1" parent="1" source="IYxpVepuhbEYIuZDDsvg-2" target="IYxpVepuhbEYIuZDDsvg-16">
          <mxGeometry relative="1" as="geometry">
            <mxPoint x="240" y="760" as="targetPoint" />
          </mxGeometry>
        </mxCell>
      </root>
    </mxGraphModel>
  </diagram>
</mxfile>
